<svg xmlns="http://www.w3.org/2000/svg" width="45.182" height="11.72" viewBox="0 0 45.182 11.72">
  <g id="Group_2" data-name="Group 2" transform="translate(-108.559 -655.264)">
    <g id="Group_1" data-name="Group 1" transform="translate(108.559 655.264)">
      <path id="Path_1" data-name="Path 1" d="M108.559,403.742h3.363l.523-.9h3.018l.514.9h3.156l-3.67-8.284h-3.018Z" transform="translate(-108.559 -392.022)"/>
      <path id="Path_2" data-name="Path 2" d="M258.266,506.154h1.577L259.109,504Z" transform="translate(-253.767 -497.501)" fill="#e9e9e9"/>
      <path id="Path_3" data-name="Path 3" d="M480.04,397.044h3.105v-2.521h.513l1.81,2.521h3.542l-2.151-2.914s1.723-1.3,1.723-2.642-.861-2.825-1.723-3.053a67.533,67.533,0,0,0-6.82,0Z" transform="translate(-468.884 -385.324)"/>
      <path id="Path_4" data-name="Path 4" d="M584.659,473.133v1.737h1.991s.536-.434.536-.869-.536-.868-.536-.868Z" transform="translate(-570.581 -468.011)" fill="#e9e9e9"/>
      <path id="Path_5" data-name="Path 5" d="M787.772,395.619h8.143v2.464H793.3v6.04h-2.917v-6.2h-2.611Z" transform="translate(-767.646 -392.403)"/>
      <path id="Path_6" data-name="Path 6" d="M1094.276,395.651v-2.5h3.924v8.466h-2.7v-5.966Z" transform="translate(-1064.919 -389.936)"/>
      <path id="Path_7" data-name="Path 7" d="M1275.95,392.665l1.225-1.653a4.931,4.931,0,0,0,.939.385,8.482,8.482,0,0,0,1.174.229,1.4,1.4,0,0,0,1.1-.43,1.89,1.89,0,0,0,.275-1.26,5.056,5.056,0,0,1-2.832.39,2.569,2.569,0,0,1-1.877-2.264,3.162,3.162,0,0,1,2.713-3.372,5.19,5.19,0,0,1,3.7.977,4.076,4.076,0,0,1,.807,1.3,7.13,7.13,0,0,1,0,3.818c-.628,1.58-.708,1.952-2.513,2.5S1275.95,392.665,1275.95,392.665Z" transform="translate(-1241.581 -381.717)"/>
      <ellipse id="Ellipse_1" data-name="Ellipse 1" cx="1" cy="1.5" rx="1" ry="1.5" transform="translate(36.779 4.205)" fill="#54b9d3"/>
      <path id="Path_8" data-name="Path 8" d="M1423,283.26v-1.666s3.046.118,4.7,1.666,1.921,4.526,1.921,4.526H1427.7a4.875,4.875,0,0,0-1.28-2.9A8.5,8.5,0,0,0,1423,283.26Z" transform="translate(-1384.44 -281.593)" fill="#54bcd4"/>
    </g>
  </g>
</svg>
