<svg xmlns="http://www.w3.org/2000/svg" width="5.564" height="6.167" viewBox="0 0 5.564 6.167">
  <g id="Group_6" data-name="Group 6" transform="translate(-568.149 -187.875)">
    <path id="Path_2" data-name="Path 2" d="M567.3,196.474s-.108-2.179,1.119-2.269a1.9,1.9,0,0,1,1.754.749,1.3,1.3,0,0,1,1.839-.749c1.3.649.719,2.269.719,2.269a8.9,8.9,0,0,1-2.558.41A12.906,12.906,0,0,1,567.3,196.474Z" transform="translate(0.851 -2.842)" fill="#91297f"/>
    <path id="Path_3" data-name="Path 3" d="M572.147,190.98c-.553,0-1.1-1.029-1.1-1.743a1.106,1.106,0,1,1,2.212,0C573.257,189.952,572.7,190.98,572.147,190.98Z" transform="translate(-1.281)" fill="#91297f" stroke="#90297f" stroke-width="0.5"/>
  </g>
</svg>
